# xmcd
#
# Track frame offsets:
#	150
#	21186
#	38388
#	55120
#	74544
#	92444
#	111178
#	130059
#	142357
#	159595
#	188116
#	251573
#
# Disc length: 3903 seconds
#
# Revision: 0
# Processed by: cddbd v1.4PL0 Copyright (c) Steve Scherf et al.
# Submitted via: dBpowerAMP V4.0
#
DISCID=a20f3d0c
DTITLE=ERIC BURDON - THE NIGHT
DYEAR=2001
DGENRE=R&B
TTITLE0=THE NIGHT
TTITLE1=HEART ATTACK
TTITLE2=LOVE IS FOR ALL TIME
TTITLE3=TANGO
TTITLE4=IT'S TOO LATE
TTITLE5=NO MORE WAR
TTITLE6=YOUNG GIRLS
TTITLE7=DEVIL'S DAUGHTER
TTITLE8=SIXTEEN TONS
TTITLE9=HOOK FROM HOLLAND
TTITLE10=TOBACCO ROAD
TTITLE11=FOR YOUR LOVE
EXTD=www.risun.com
EXTT0=
EXTT1=
EXTT2=
EXTT3=
EXTT4=
EXTT5=
EXTT6=
EXTT7=
EXTT8=
EXTT9=
EXTT10=
EXTT11=
PLAYORDER=
